/* XPM */
static char *_2d48f22eae64cd5fe5c02656ec97797gadzDAXLLGxIgEvp[] = {
/* columns rows colors chars-per-pixel */
"50 50 222 2 ",
"   c #62399F",
".  c #6B39A8",
"X  c #6C2CB8",
"o  c #702DBB",
"O  c #7335B2",
"+  c #6837B5",
"@  c #7D1CDE",
"#  c #7517DD",
"$  c #6C25C4",
"%  c #7224CD",
"&  c #762ACA",
"*  c #7628CA",
"=  c #7737C1",
"-  c #7A27D5",
";  c #7425DE",
":  c #7E2EDB",
">  c #7926DA",
",  c #7335D8",
"<  c #7C15E3",
"1  c #7A1BE5",
"2  c #7E16EC",
"3  c #7D1DED",
"4  c #731AE7",
"5  c #7F0EF2",
"6  c #7D15F3",
"7  c #7D1CF2",
"8  c #7D14FC",
"9  c #7E22E3",
"0  c #7E2AE7",
"q  c #7E24EB",
"w  c #7427E2",
"e  c #823BBB",
"r  c #852CD7",
"t  c #813DD0",
"y  c #841BE4",
"u  c #8415ED",
"i  c #831AEE",
"p  c #891EEB",
"a  c #8C12EF",
"s  c #8214F6",
"d  c #8E16F5",
"f  c #831CF2",
"g  c #8415FA",
"h  c #8B16FB",
"j  c #851AFC",
"k  c #8A1BFD",
"l  c #8C1FF6",
"z  c #822CEF",
"x  c #8324F3",
"c  c #8523FE",
"v  c #813AF0",
"b  c #983CF9",
"n  c #8347C1",
"m  c #8B51CA",
"M  c #9754DF",
"N  c #8856DB",
"B  c #9B63D2",
"V  c #9B7EDA",
"C  c #A977CB",
"Z  c #AB6BDD",
"A  c #A76BDA",
"S  c #B66FD9",
"D  c #AC75DA",
"F  c #A979DC",
"G  c #A577DA",
"H  c #9E56FE",
"J  c #9549F4",
"K  c #B15FE8",
"L  c #BC5DFE",
"P  c #B75BFE",
"I  c #9E74F0",
"U  c #AF60EF",
"Y  c #AD67E4",
"T  c #B16AE7",
"R  c #B565EE",
"E  c #BA66EB",
"W  c #B56AEC",
"Q  c #A879E9",
"!  c #B272E3",
"~  c #B872EC",
"^  c #AE65FC",
"/  c #AE6FF1",
"(  c #B462F4",
")  c #BD63F6",
"_  c #B46BF3",
"`  c #BB6BF3",
"'  c #B660FA",
"]  c #BD63FD",
"[  c #B569FC",
"{  c #BB6AFC",
"}  c #A67CF6",
"|  c #A97CF5",
" . c #A67DFB",
".. c #AA7DFD",
"X. c #BB73F3",
"o. c #BA7BF5",
"O. c #BC74FE",
"+. c #B27CFE",
"@. c #BC7CFF",
"#. c #B675F8",
"$. c #C25EFF",
"%. c #C264FF",
"&. c #C16CFC",
"*. c #C96BFF",
"=. c #C465F7",
"-. c #C877F7",
";. c #C676FF",
":. c #C377F7",
">. c #A88ECF",
",. c #A384D0",
"<. c #A48ADE",
"1. c #A087DB",
"2. c #B686DF",
"3. c #AB96D1",
"4. c #B59CDB",
"5. c #A483E5",
"6. c #A483EC",
"7. c #AA83ED",
"8. c #AA8CE4",
"9. c #BE87ED",
"0. c #AC91E2",
"q. c #B49CE6",
"w. c #B89FE3",
"e. c #A683F3",
"r. c #AB81F4",
"t. c #A780FF",
"y. c #AD83FD",
"u. c #AE88FF",
"i. c #B182F5",
"p. c #B285FE",
"a. c #BB84FF",
"s. c #B389FE",
"d. c #BC8CFF",
"f. c #BB8CF6",
"g. c #C9AFDC",
"h. c #CAB5DE",
"j. c #C69DE9",
"k. c #C588FC",
"l. c #D688FF",
"z. c #CE93FF",
"x. c #CD9DFE",
"c. c #CA99F4",
"v. c #D29CFF",
"b. c #DA9CFF",
"n. c #D399F9",
"m. c #C6AEE4",
"M. c #C2A4EB",
"N. c #CBACEE",
"B. c #D0A2EB",
"V. c #CEB1E5",
"C. c #CCB1EA",
"Z. c #D1B5E6",
"A. c #C6A2F3",
"S. c #CBA4F5",
"D. c #CDAAF4",
"F. c #CDA3FE",
"G. c #CEA8FF",
"H. c #D1A5F3",
"J. c #D4A4FE",
"K. c #D9A5FF",
"L. c #D4A9FE",
"P. c #DBAAFF",
"I. c #D2B5F3",
"U. c #D5B8FB",
"Y. c #E1A1FF",
"T. c #E6A8FF",
"R. c #E8BAFF",
"E. c white",
"W. c white",
"Q. c white",
"!. c #DDC8FA",
"~. c #ECC5FF",
"^. c #EFCEFF",
"/. c #E0CCFF",
"(. c #FBC1FF",
"). c #E6D2FF",
"_. c #EAD4FF",
"`. c #FFD3FF",
"'. c #FDDCFF",
"]. c #F4D6FF",
"[. c #DDE5E7",
"{. c #E6EEE6",
"}. c #EDEBE4",
"|. c #EBECEC",
" X c #F0EAEC",
".X c #EBF0E9",
"XX c #F4F0EB",
"oX c #EDEDF3",
"OX c #FFE4FF",
"+X c #FFECFF",
"@X c #EEF3F7",
"#X c #F4F6F3",
"$X c #FEF6F5",
"%X c #F6FAF5",
"&X c #FCFCF5",
"*X c #F7F5FC",
"=X c #FEF4FF",
"-X c #F6FBF9",
";X c #FFFFFB",
":X c #FCFEFA",
">X c #FAF9FE",
",X c #FFF9FF",
"<X c #FFFAFF",
"1X c #FDF9FE",
"2X c #F9FFFF",
"3X c #FBFFFF",
"4X c #F9FFFD",
"5X c #FDFDFD",
"6X c #FEFFFD",
"7X c #FFFFFD",
"8X c #FFFEFD",
"9X c #FFFCFF",
"0X c #FFFDFF",
"qX c #FEFDFF",
"wX c #FCFFFF",
"eX c #FEFEFE",
"rX c #FFFEFF",
"tX c #FEFFFF",
"yX c white",
"uX c #FEFEFF",
"iX c #FDFEFD",
"pX c #FEFEFE",
/* pixels */
"E.E.Q.W.W.{.W.W.W.W.W.W.W.W.W.yXyXyXyXyXyXyXyXyXyXyXyXyXyXyXyXyXyXyXyXyXyXyXyXyXyXyXyXyXeXeXeXeXeXeX",
"eXeXeXeXeXeXeX1XeXeXeXeXeXeXeXeX2X-X1X1X&X:X1XeXeXeXeXeXeXeX:XeXeXeXeXeXeXeXeXeXeXeXeXeXeXeXeXeXeXeX",
"eXeXeXeXeXeX1XeXeXeXeXeXeXeXeXeX:X:XeXeX:XeX+X3.m.=X>X>X1X:X:X:XeXeXeXeXeXeXeXeXeXeXeXeXeXeXeXeXeXeX",
"eXeXeXeXeXeXeXeXeXeXeXeXeXeXeXeX:X:X1X1XeX+X+X. D +X1XeX1XeX:X&XeXeXeXeXeXeXeXeXeXeXeXeXeXeXeXeXeXeX",
"eXeXeXeXeXeXeXeXeXeXeXeXeXeXeXeXeX:X%X:XeX+XM : ^ 9.1X&X:XeXeXeXeXeXeXeXeXeXeXeXeXeXeXeXeXeXeXeXeXeX",
"eXeXeXeXeXeXeXeXeXeXeXeXeXeXeXeX:X:X2XeX=XOX- < L X.OX=XeX2XeX*XeXeXeXeXeXeXeXeXeXeXeXeXeXeXeXeXeXeX",
"eXeXeXeXeXeXeXeXeXeXeXeXeXeXeXeX&XeX2X>X+Xe y y %.E C +XeX2X*XeXeXeXeXeXeXeXeXeXeXeXeXeXeXeXeXeXeXeX",
"eXeXeXeXeXeXeXeXeXeXeXeXeXeXeXeXeX&X2X=XR.r y p $.E S `.=X2XeX1XeXeXeXeXeXeXeXeXeXeXeXeXeXeXeXeXeXeX",
"eXeXeXeXeXeXeXeXeXeXeXeXeXeXeXeX:XeXeX+X& p u y $.=.E D =XeX1XeXeXeXeXeXeXeXeXeXeXeXeXeXeXeXeXeXeXeX",
"eXeXeXeXeXeXeXeXeXeXeXeXeXeXeXeXeXeX+XJ.- s k p =.=.%.T L.1XeX:XeXeXeXeXeXeXeXeXeXeXeXeXeXeXeXeXeXeX",
"eXeXeXeXeXeXeXeXeXeXeXeXeXeXeXeX1X1X+Xo # c g i $.) ) X.D +X=XeXeXeXeXeXeXeXeXeXeXeXeXeXeXeXeXeXeXeX",
"eXeXeXeXeXeXeXeXeXeXeXeXeXeXeXeX1X=X_ > x h g i L *.' ( Y c.=X1XeXeXeXeXeXeXeXeXeXeXeXeXeXeXeXeXeXeX",
"eXeXeXeXeXeXeXeXeXeXeXeXeXeXeXeX=XOX% 6 s j j f L ] { { ] ~ OX=XeXeXeXeXeXeXeXeXeXeXeXeXeXeXeXeXeXeX",
"eXeXeXeXeXeXeXeXeXeXeXeXeXeXeX1X+Xn q k 6 g j 2 %.L %.] P ` C =X1XeXeXeXeXeXeXeXeXeXeXeXeXeXeXeXeXeX",
"eXeXeXeXeXeXeXeXeXeXeXeXeXeXeX=X'.* i k g j k p L %.] L *.R ~ OX=XeXeXeXeXeXeXeXeXeXeXeXeXeXeXeXeXeX",
"eXeXeXeXeXeXeXeXeXeXeXeXeXeXeX=X= 9 2 g k g g i L ] L ) ) ` ` A =XeXeXeXeXeXeXeXeXeXeXeXeXeXeXeXeXeX",
"eX:X:XeXeXeX2XeXeX*XeX>X>X1X=X~.* i s g g j 8 3 %.] ] ) ] ] { W ~.=X=XeXeXeXeXeXeX2X:X:XeXeXeXeXeXeX",
"eXeXeXeXeXeX2XeX1XeX*XeXeX=X+XO 1 k k 6 g g j f L ] ] ] ) ] ] W C =X=XeXeXeXeXeX2X2XeX:XeXeXeXeXeXeX",
":X:XeXeXeX:XeXeXeXeX>XeX:X=Xd.; x 6 g g k g g s $.$.L %.&.) ] [ ! H.=X1X-X:X:X:XeX2XeXeXeXeXeXeXeXeX",
":XeXeX2X4X:X:XeXeXeXeX:X1X+X% c j s j s g 5 h l $.%.$.] ] ' ] { W D =X=XeX:X:X:XeXeXeX2XeX:XeXeXeXeX",
"eXeXeX2X:X&X&X:XeX&XeX1X+XB 9 g g k k g h g f @ P =.*.] L ] ] ] &.T 8.=X1X&X%XeXeXeXeX2X:X:XeXeXeXeX",
"1XeX2X2X2X&X:X:XeXeX&X1XOX* f h d s g k j 7 q r ;.W P ] %.] ] %.L =.Z OXeX:XeXeX1XeXeX2X4X:X:XeXeXeX",
"1X1XeX2XeXeXeXeXeXeXeX+Xn 4 u d d h h j 4 0 J O.b.k._ [ %.] $.%.$.%.[ D =X1XeX>XeX:XeXeX4X4X:X:XeXeX",
"eXeX2X2XeXeXeXeXeXeX1X`.# g d d s k 2 1 0 ^ @.a.v.K.z.X.U %.%.$.*.L ' X.].=XeX:XeX:XeXeX2X2X:XeXeXeX",
"eXeX>XeXeX1X1XeXeX1X+XO y h g h s i 9 : O.a.+...L.J.J.v.-.` P =.%.%.] _ D +XeXeXeX$X:X:XeX2XeXeXeXeX",
":X:XeXeX=XeX1XeXeX=XR.$ < k g j 7 w H ;.+...a.p.G.G.L.P.v.k.O.U ' ] L ) / ~.=X1X=X1X:X:XeX2XeXeXeXeX",
"&X:XeX=XeXeX:X=XeX+X$ q f g c w w +.@...a.k...p.G.J.L.J.K.K.z.o.~ ` =.) ] Q +X=X1XeX=X$XeX1XeXeXeXeX",
"%X:X:XeX:X$X:XeX=XQ w 7 6 2 q 0 +.....d.y.y...s.J.L.G.F.J.P.K.x.o.Y ` &.' / j.=X1XeXeX1X:X:X2X2XeXeX",
"-X:XeXeX$X:X:X+X+XX x 8 7 q H a.p.s.u.y. .s.p.o.L.J.L.J.F.J.J.J.P.z.Y ` &.E D +X=X1XeXeX$X:XeXeXeXeX",
":X2XeX1X:X:X=X=Xm > f 6 z [ p.y.y.t.u.u.s.u.p.i.L.J.J.P.J.J.L.J.F.J.Y.E R &.Z 2.=X=X1XeX&XeXeXeXeXeX",
"2XeXeX*XeXeX=X'.$ q # b @.a.y.y.u.y.y.y.s.i.i.i.L.J.J.J.J.J.J.J.L.L.v.Y.-.E W Z '.1X2X:XeX1X1XeXeXeX",
"2X-XeXeXeX1X=X. ; 3 L ;.@.i.y.u.u.y.u.u.e.u.s.r.J.J.J.K.K.K.K.J.J.J.K.b.T.l.X.T ,.=XeX&XeX1XeX1XeXeX",
"eX:X:X:X1X=X~.+ , O.@.#.i.s.y.p.y.u.y.y.y.i.u.i.L.L.L.J.J.L.J.L.J.x.P.T.B.Y.Y./ G _.=X=X:XeX1XeXeXeX",
"eXeX&X:X=X=X  N p.+.+.d.7.r.p...y.u.p.u.p.u.p.p.J.L.J.J.J.J.L.J.J.P.S.B.P.J.v.b.f.C =X1X$X&XeXeXeXeX",
"eX:X&X:X=XM.Q y...a.+.y.p.p.y.u.y.y.y.u.u.y.u.i.G.J.J.J.J.J.J.J.J.J.J.H.J.P.P.x.L.A.g.1X&X:X:XeXeXeX",
"#XeX&X1X1X3.8.r.p.y.} y.p.y. .y.y...y.y.y. ...t.G.L.J.J.J.J.J.J.J.J.J.P.J.x.F.L.A.I.h.1XeX&X&X:XeXeX",
"eXeXeX1X=X=X!.1.Q t.u.t. ... . ...y...t.t. .....F.J.J.v.J.J.K.J.J.K.J.x.J.J.F.S.Z.!.=XeXeX%X:X:XeXeX",
"2X>XeXeXeX=X=X+X8.6.e.t.u...t.y....... .y. .y. .F.G.J.J.J.J.v.H.n.J.J.F.G.L.D.C.OX1X=XeXeXeXeXeXeXeX",
"eXeXeX&XeXeXeX=X+Xq.6.t.t. .y....... .y. . ...| J.J.J.J.J.J.b.K.J.J.J.F.G.M.C.=X1X:X:X:XeXeXeXeXeXeX",
"eXeX:X&X:X:X:X1XeX*X!.5.6.y. ......... ...t...| F.J.J.J.v.K.J.J.J.S.L.S.N._.=X1X1X:X&X-XeXeXeXeXeXeX",
":X:X:X:X:X:XeXeXeX1X=X+X1.6.e.y.........y. ...| J.K.n.K.K.K.K.x.L.S.N.V.+X=XeXeXeXeXeXeXeXeXeXeXeXeX",
":X:XeXeX:XeXeXeX&X1XeX=X=Xq.1.e...s.| | | p...#.v.P.J.J.n.v.J.L.S.D.Z.+X=XeXXX:XeXeXeX2XeXeXeXeXeXeX",
":X:XeXeXeXeXeXeXeXeXeX1X1X1X/.<.e.} } u.p. .+.+.J.v.J.v.P.F.F.F.N.].=X=X:X&X-XeXeXeX2XeXeX:XeX:XeXeX",
"eXeXeXeXeXeXeXeXeX%XeX:X$X>X1X+X0.5.6.u.I ..+...v.J.P.x.F.L.D.N.+X1XeX$X:X$XeXeXeXeXeXeXeX:X:X:XeXeX",
"eXeXeXeXeXeXeXeXeXeX:X#XeXeXeXeX+X4.8.6.y.....i.J.P.x.J.G.N.g.=X1XeX:X:XeXeX1XeXeXeXeX:X:X:X:XeXeXeX",
"eXeXeXeXeXeXeXeXeXeX&X:XeXeX%XeX1X=X!.1.7.p.| i.J.c.L.F.N.^.*XeX=X:XeXeX:XeXeXeXeXeXeXeX:XeXeXeXeXeX",
"eXeXeXeXeXeXeXeX:XeXeX-XeX2XeXeX1XeX1X+X,.5. ...F.J.D.V.=X=XeXeXeX2XeXeXeX:XeX:XeXeXeXeXeXeXeXeXeXeX",
":XeXeXeXeXeXeX:XeXeXeXeX&XeXeX2XeXeX1X1X1Xw.7.7.L.S.Z.=XeXeXeXeXeXeXeXeX-X:X:X:XeXeXeXeXeXeXeX:XeXeX",
"eX:XeXeXeXeXeXeXeXeXeXeXeXeXeXeXeXeXeX2X1X1X/.>.m._.=XeXeXeXeXeXeXeXeXeXeXeXeXeXeXeXeXeXeXeXeXeXeXeX",
"eXeXeXeXeXeXeXeXeXeXeXeXeXeXeXeXeXeXeXeXeXeX=X+X+X1XeX:XeXeXeXeXeXeXeXeXeXeXeXeXeXeXeXeXeXeXeXeXeXeX"
};
