/* XPM */
static char *_3d0a852aab9466fa6efc97694b2dbb1xxrJA55JnNW1X2IB[] = {
/* columns rows colors chars-per-pixel */
"50 50 251 2 ",
"   c #080409",
".  c #15090D",
"X  c #0B0A15",
"o  c #0A0A19",
"O  c #170C17",
"+  c #0E121B",
"@  c #13121D",
"#  c #1B131C",
"$  c #191317",
"%  c #22151D",
"&  c #221B1E",
"*  c #300D1A",
"=  c #0D122C",
"-  c #151322",
";  c #1B1924",
":  c #191728",
">  c #0C1432",
",  c #0C173A",
"<  c #131C3C",
"1  c #161B35",
"2  c #110F22",
"3  c #261B25",
"4  c #2E1E2E",
"5  c #1D223B",
"6  c #24232D",
"7  c #2B242C",
"8  c #2C282D",
"9  c #36292C",
"0  c #2B2634",
"q  c #2D2A34",
"w  c #282738",
"e  c #332A32",
"r  c #3A2D33",
"t  c #342A38",
"y  c #3C343B",
"u  c #373338",
"i  c #2E3639",
"p  c #21201E",
"a  c #491525",
"s  c #501D30",
"d  c #592839",
"f  c #433A3E",
"g  c #44363A",
"h  c #4A2E32",
"j  c #55413D",
"k  c #0E1C44",
"l  c #121E43",
"z  c #142145",
"x  c #14224B",
"c  c #19264B",
"v  c #1D2748",
"b  c #152652",
"n  c #1B2D5B",
"m  c #172A56",
"M  c #18325B",
"N  c #242944",
"B  c #3B3643",
"V  c #283355",
"C  c #383B53",
"Z  c #2A2F4C",
"A  c #1B3667",
"S  c #1E3E74",
"D  c #0D3973",
"F  c #213768",
"G  c #233E73",
"H  c #343C64",
"J  c #433D43",
"K  c #473A46",
"L  c #583846",
"P  c #54344E",
"I  c #6A3B4C",
"U  c #633649",
"Y  c #6B3C51",
"T  c #723F52",
"R  c #613F64",
"E  c #1B457A",
"W  c #22457B",
"Q  c #394771",
"!  c #374F75",
"~  c #3E404C",
"^  c #4B444B",
"/  c #494449",
"(  c #52444C",
")  c #584748",
"_  c #4C4952",
"`  c #584C55",
"'  c #5C5255",
"]  c #58555A",
"[  c #694C4B",
"{  c #654849",
"}  c #6A524E",
"|  c #684A58",
" . c #76495A",
".. c #685557",
"X. c #735553",
"o. c #755956",
"O. c #73555B",
"+. c #7B5C5B",
"@. c #78585B",
"#. c #71524D",
"$. c #7B615E",
"%. c #5B5863",
"&. c #454B73",
"*. c #4F5070",
"=. c #774B64",
"-. c #685964",
";. c #7B5462",
":. c #7D5A64",
">. c #7D5C69",
",. c #765765",
"<. c #6F5A73",
"1. c #686369",
"2. c #7C6464",
"3. c #776569",
"4. c #7A6977",
"5. c #767378",
"6. c #6A6878",
"7. c #825D5E",
"8. c #814E63",
"9. c #835566",
"0. c #835C64",
"q. c #855A6B",
"w. c #8B5E73",
"e. c #935E78",
"r. c #836463",
"t. c #856867",
"y. c #85636B",
"u. c #8B636B",
"i. c #8B6D6C",
"p. c #86686A",
"a. c #92696E",
"s. c #8D716E",
"d. c #8C6471",
"f. c #886875",
"g. c #926575",
"h. c #936A74",
"j. c #956B7B",
"k. c #9A6D7B",
"l. c #94667A",
"z. c #897679",
"x. c #9B747C",
"c. c #9A7D7D",
"v. c #947678",
"b. c #A17F7E",
"n. c #9E807E",
"m. c #164B86",
"M. c #1A5898",
"N. c #104A88",
"B. c #254C86",
"V. c #395584",
"C. c #2A5E9A",
"Z. c #275A94",
"A. c #375B94",
"S. c #2B5389",
"D. c #2C639D",
"F. c #2A6398",
"G. c #33649E",
"H. c #3B6A9B",
"J. c #35658D",
"K. c #295FA1",
"L. c #2C68A6",
"P. c #346AA5",
"I. c #336DAA",
"U. c #3769A5",
"Y. c #3C73AC",
"T. c #3872AA",
"R. c #3977B4",
"E. c #2E70B2",
"W. c #1F66A8",
"Q. c #4E5A87",
"!. c #695E83",
"~. c #546C92",
"^. c #7D7B82",
"/. c #6E6D90",
"(. c #456DA2",
"). c #4576AA",
"_. c #5379A6",
"`. c #437BB3",
"'. c #427EBA",
"]. c #3D7EC0",
"[. c #986B85",
"{. c #827E82",
"}. c #9E7282",
"|. c #947885",
" X c #8E6F8E",
".X c #A27484",
"XX c #A6788A",
"oX c #A87D94",
"OX c #A8728E",
"+X c #937FA2",
"@X c #4983BC",
"#X c #5687B6",
"$X c #6D88AA",
"%X c #739CC7",
"&X c #88848B",
"*X c #988487",
"=X c #8B8B93",
"-X c #99969B",
";X c #968C94",
":X c #A28284",
">X c #A48B8C",
",X c #A8888B",
"<X c #A88693",
"1X c #BB8A9C",
"2X c #B48497",
"3X c #AA9295",
"4X c #B29494",
"5X c #B6989C",
"6X c #B08E8F",
"7X c #9793AB",
"8X c #B887A2",
"9X c #A799A4",
"0X c #B997A5",
"qX c #AA96B3",
"wX c #9DA1A9",
"eX c #BBA1A4",
"rX c #B5A9B3",
"tX c #ADABB3",
"yX c #BFA09E",
"uX c #C797AA",
"iX c #CC9DB2",
"pX c #CD93AE",
"aX c #C4A1B3",
"sX c #D6A7B9",
"dX c #C8AEB3",
"fX c #BABDC9",
"gX c #ADACCA",
"hX c #DABACA",
"jX c #CCBFC9",
"kX c #E8B9C9",
"lX c #E9B4CA",
"zX c #BBD0E3",
"xX c #CAC8CB",
"cX c #D7D4D6",
"vX c #CDCED3",
"bX c #DEDDE2",
"nX c #D3E5FB",
"mX c #E7E4E7",
"MX c #EBF5F9",
"NX c #F4F4F5",
"BX c #F5F6FA",
"VX c #F4FBFE",
"CX c white",
"ZX c #FEFEFC",
"AX c white",
"SX c #FFFEFF",
"DX c #FDFDFE",
"FX c #FEFEFE",
"GX c #FBF7F8",
"HX c #F0EFF1",
"JX c #E1DAE1",
/* pixels */
"CXZXZXCXDXCXDXVXDXVXCXCXBXFXFXJXtX&X1.) _ ( ' ..6.5.;XtXcXmXGXZXZXZXZXZXZXZXVXZXZXCXCXCXCXCXCXCXCXCX",
"GXCXCXCXDXDXDXDXDXCXCXCXFXJX;X%.K f y f J J y f y 9 7 6 r ' 5.*XxXNXNXZXHXZXCXCXZXCXCXCXCXCXCXCXCXCX",
"ZXCXCXDXDXCXDXDXCXCXCXHXtX1.( ( ^ _ ^ ^ / / J J ^ ^ ^ j u 8 r j ] 1.tXZXZXCXGXFXCXCXCXCXCXCXCXCXCXCX",
"CXCXCXDXCXCXVXDXVXCXbX-X` ( _ e J / ^ / / J J u 8 8 u y / / u i _ ] ` 1.xXCXDXCXCXCXCXCXCXCXCXCXCXCX",
"DXDXCXCXCXDXBXDXZXcXn./ / g y ' / g r 8 e y J / _ B t 7 6 8 i B t _ 5.5._ tXCXBXFXFXCXCXCXCXCXCXCXCX",
"CXDXCXCXDXCXCXCXxX&X/ i g g 8 p % $ % % & % O . # 7 u J u 8 7 8 u 0 y 5.wX/ rXCXFXCXCXCXCXCXCXCXCXCX",
"CXDXCXDXGXCXBXxX5./ r y $ . 8 j f g 9 9 r h r g y 7 $ $ 3 8 q e 7 y y 7 ] 9X%.vXFXCXCXCXCXCXCXCXCXCX",
"CXDXCXCXGXCXcX5.j r 9 9 ..z.*Xn.$.} ) ) ) g ) ' -.-.-.` y 3 7 e r e y y e 5.{.-XFXCXFXCXCXCXCXCXCXCX",
"DXDXCXBXGXcX5.j i r } z.;X3X*X3.o.} } } { j ) ..} $.3.5.z.5.) r r r # f ` J ^.^.xXBXFXFXCXCXCXCXCXCX",
"DXDXCXCXcX-Xj 9 j 1.n.>XeX3Xn.3.$.$.#.} [ } #.o.$.} } ..i.*Xn.z.j 9 $ O / -.] 1.] FXCXBXCXCXGXCXCXCX",
"CXCXCXNX-X5.f j 3.{.;X3XeXeX>Xn.s.#.#.7.r.o.o.r.i.t.$.o.t.z.c.*X5.1.9 p e / ] &X/ 9XFXNXCXCXGXCXCXCX",
"DXVXGXfX] ) / 3.n.n.3X4X3X3X4Xn.n.$.#.r.s.s.i.s.$.s.v.s.i.s.s.2.n.$.5.j r ' J 1.=X1.BXFXCXDXCXFXCXCX",
"DXDXCX$X$ 9 ' 3.3.;X3X4XaXyX6X6Xn.s.$.#.$.c.n.v.$.i.s.r.t.v.s.2.$.' $.' j 5.1.8 6.$XrXZXFXCXCXNXCXCX",
"DXVXVX] . h 1.$.n.n.3X3XyXyX4Xn.r.r.$.o.r.v.n.n.t.i.t.X.X.t.s.t.o...) ..9 _ -X] + 5.;XGXBXCXCXCXCXCX",
"DXVXHXy p } 3.3.5.n.n.n.v.n.,Xs.t.2.r.s.n.n.*X,Xr.t.$.X.[ X.r.s.$.} $...9 i 5.wX~ J -XNXCXCXDXCXCXCX",
"DXDXmX8 $ ) $.3.2.$.) } n.yX4Xn.v.n.:X:X,X,X,X>Xv.p.@.X.X.X.o.$.$.2.j } ..g n.wX&X$ &XHXFXCXCXCXCXCX",
"ZXZXmXp   j 1.$.2.) { @.4XdXyX6X>X4X4X4X6X,X,Xn.a.t.r.7.7.#.{ { { { } j ....1.1.1./ B tXCXCXNXCXZXZX",
"ZXZXZXi   j 3.-.O.{ { 0.6X5X5X4X>X4X4X4X6X6Xn.x.a.r.7.7.7.#.7.#.[ j j j ] ) u $ $ ] _ 1.HXBXDXMXZXZX",
"CXVXZX..  i 5.} } { X.0.v.n.,X:Xb.n.:X,X:X,Xx.a.a.7.7.u.r.r.7.#.#.j j ) j p ; + X q ` B bXDXVXCXCXCX",
"ZXZXZX-X  p ;X....| @.7.r.s.a.0.p.a.v.x.x.x.h.a.a.7.7.7.a.7.7.#.#.j h f j p X ; ; o J 6 &XCXCXCXCXCX",
"FXCXDXcXp $ 5...O.O.y.O. .7. .X.0.u.a.h.h.a.a.a.a.u.q.u.7.7.7.7.[ L 9 9 9 & @ o @ O @ _ 1.fXCXBXCXCX",
"FXGXCXHXJ   f g 3.|.XXg.#. .I 7.0.u.h.h.h.h.h.k.k.a.a.u.7.7.7.7.| ) h p   ; q : : :   %.^.-XDXCXCXCX",
"FXFXCXCX5.  3 3 ,.0X0X4Xk.8.8.7.0.q.g.k.j.k.k.k.b.k.h.a.0.q.9.q.2.( e & ; B i 6 q 6 X 0 1.>XbXZXCXCX",
"FXFXDXCX-X. e 3 ` rXuXsX1Xg.u.u.d.g.j.k.x.k.k.k.x.k.g.u.0.q.a.a.v.,.3 . B ^ + ~ 0 : @ u 5.$XtXZXCXCX",
"FXFXCXBXwX  u t P 0XhXhXkXuXXX1X1X1X1XXXOXoXOXk.k.k.g.g.h.a.d.d.f.P 3 % K B - ; : - o %.6.%.=XCXFXCX",
"FXGXBXBX-X  q 3 K ;XhXsX2XOX2XpXsXsX1XOX1XpX1XoXOXOXk.OX.Xk.j.d.| -.( 3 t q ; : - + - _ %.C 5.BXDXFX",
"FXFXFXCX=X@ q ; 7 f.aX<X . .e..XuXuXoXl.8.g.uXuXpXoXb..Xl.l.}.y.| f.| % 3 q ; 2 - o ; B / q /.CXFXFX",
"BXCXCXCXwX+ q ; 4 <. Xq.9.w.w. .w.XX.X8.d d 9.q.x.g.e.u.y.d.j.0.f.|.| O 3 w @ + + + ; 5 B 6 {.CXFXFX",
"CXCXBXVXvX+ 6 i t P  Xw. .U U I I 1Xk.U d s s Y I I I I  . .9.d.*X|.| % # 3 X ; + - : w 0 + =XVXDXFX",
"FXCXCXDXHXi ; _ B 3 >.| d 8.7.9.l.sX2XT 8.q. . .I U L I ;.{ y.<X}.j.| * # # X @ - + - i 6 o wXCXFXFX",
"GXGXCXDXMX5.o i K O 4.kXiX[.w.oX .k.[. .l.iXiX.Xq.8.d.[.<Xh.oX5X}.l.O.* % & @ X @ o : q : 1 tXVXFXFX",
"FXCXZXZXVXzX+ o _ ` -.rXaXiXsXlX}.lXsX8.I XXuXsXiXuXsXuX0XXX5XXX.Xl.>.9 O O $ @ - @ 0 N 1 Z 7XfXfXfX",
"FXFXFXCXVXVX$XX 5 6.7X9X8XuXuX1Xk.lXpXk.8.9.OXuXpX8XpXsX2Xj.h.x.|.>.2.h . * . - O N N 5 N Z &.*./.~.",
"FXGXFXVXMXzX6.M > 5 C qX X[.k. .e.lXsXb.u.8.q.OXOXoXoXOX:.=.2.y.f.f.;.4 O % O 3 3 N C 5 v z Q ! Q.Q.",
"FXCXDXVXfX! $XJ.! ! ! =XqXOXl.T pXlXpX2Xk.k.k. .R =.q.=. .q.y.O.=.:.;...` .   # 0 0 C v l , Q Q b l ",
"CXDXMXzX$X$XJ.).@X_.~.!.qXqX;.Y pXlXsX8Xk.k.e.I T =.[.[.,.=.:.:.:.>.O.|.hXrX|.r 0 1 C N , < ! C c b ",
"VXVXnX~.$X@XP.T.'.U.A.~.~./.R s [.pXOXT  .d d d =.T U Y | | =.,.{ :.f.<XjXdXjX6.w 6 C 1 = l H v c Z ",
"VXnX$X$X#X`.L.E.].E.(.(.Q.&.Q.P =.OX[.Y d a s I >.q.T P P P | ;.q.l.|.5X0X3XqX%.w w Z 1 > v V l l b ",
"MX$X_.#X@X@XW.W.E.E.I.A.(.V.~./.R  X8X}.T U T 8.Y U U U =.>.,.| :.j.>X*X;X9X|.B 0 w 5 > > V c l l l ",
"%X#X$X@X`.@XW.M.E.E.U.G.(.A.G /. X X X .U d s a * a a L 9.q.,.,.|.v.j.|.|.;X-.w w N , > > c k k l l ",
"#X#X`.`.`.@XI.m.U.U.U.U.U.U.S.V./.fXgX4.=.U a a s d I 9.f.w.>.>.f.>.f.4.*X!.t w 1 5 1 > , k x x l b ",
"@X@X`.P.).'.I.m.K.U.U.C.U.U.C.S.! $XgXtXoXoXOX8.8. .8.l.l.>.,.4.| | ..4.4.P 4 w 6 1 < , , x b b m n ",
"R.'.@XL.T.).U.E S.(.U.C.U.E.I.L.J.! _.gXqXqXoX[.8.e.[.[.f.<.| ` K | P -.` 0 4 1 1 1 < , k x m n A F ",
"E.R.R.D.G.).(.B.E U.G.C.P.I.L.L.T.V.Q.$X7X+X X Xw.[.|.!.-.| P h K ` P K 0 : 5 1 < z l k k m V M F G ",
"L.R.R.G.Z.).).Z.D A.G.C.L.L.L.L.L.U.(.Q.~./.!.!.!.<.*.R P K B P K B t 3 2 : 1 > k k k k b m n F S G ",
"D.T.T.T.Z.I.I.G.D Z.G.L.L.L.I.U.K.K.A.A.Q.Q.&.H V V v l w 4 w t 4 2 - 2 2 = > < k k b b b n F G G W ",
"F.F.Y.Y.Z.K.I.L.N.N.K.L.D.G.U.P.].K.A.U.A.Q.! Q M M c l < 5 : O - X 2 = = 1 = k k k b b m n F G W B.",
"F.Z.@XY.K.Z.I.K.M.N.Z.L.Z.D.G.P.K.K.K.Z.K.A.S.V.W A M m l 1 = : o = : = = > , k k x b n n n A G m.B.",
"G.m.D.T.P.Z.Z.I.M.E N.L.D.F.D.P.I.L.F.L.Z.Z.Z.Z.B.W S A n c l 1 > : = > 1 < l l l b m A A A D G B.B.",
"T.m.F.G.P.F.Z.G.Z.E N.D.D.D.D.P.I.D.F.F.D.Z.Z.Z.Z.B.B.G F n v < 1 > > , < l l b b n n F A A S S B.B."
};
