/* XPM */
static char *_c8dcbd7ce6a46939a47cd4cf89528aaPNTt63TxksalDH3l[] = {
/* columns rows colors chars-per-pixel */
"50 50 130 2 ",
"   c white",
".  c #FDFDFD",
"X  c #FEFEFE",
"o  c #FBFBFB",
"O  c gray99",
"+  c gray92",
"@  c gainsboro",
"#  c #DADADA",
"$  c #E6E6E6",
"%  c #F9F9F9",
"&  c #F1F1F1",
"*  c #ACACAC",
"=  c gray37",
"-  c #2F2F2F",
";  c gray11",
":  c gray10",
">  c #282828",
",  c gray30",
"<  c gray58",
"1  c gray89",
"2  c gray79",
"3  c gray29",
"4  c #070707",
"5  c black",
"6  c #010101",
"7  c gray18",
"8  c #A7A7A7",
"9  c #B6B6B6",
"0  c #222222",
"q  c #0C0C0C",
"w  c #898989",
"e  c gray80",
"r  c #232323",
"t  c gray4",
"y  c gray62",
"u  c gray96",
"i  c #515151",
"p  c gray14",
"a  c #D8D8D8",
"s  c #656565",
"d  c gray43",
"f  c gray23",
"g  c gray2",
"h  c gray49",
"j  c #6C6C6C",
"k  c gray32",
"l  c #DDDDDD",
"z  c #EFEFEF",
"x  c gray50",
"c  c #353535",
"v  c #EEEEEE",
"b  c #F3F3F3",
"n  c #3C3C3C",
"m  c gray13",
"M  c #F6F6F6",
"N  c gray8",
"B  c gray82",
"V  c gray91",
"C  c gray16",
"Z  c gray33",
"A  c gray57",
"S  c #090909",
"D  c #BCBCBC",
"F  c #E7E7E7",
"G  c gray34",
"H  c gray95",
"J  c #3A3A3A",
"K  c gray15",
"L  c gray87",
"P  c #555555",
"I  c #131313",
"U  c #CECECE",
"Y  c gray40",
"T  c #5F5F5F",
"R  c #8E8E8E",
"E  c #313131",
"W  c #B1B1B1",
"Q  c #020202",
"!  c gray47",
"~  c #818181",
"^  c #4B4B4B",
"/  c gray46",
"(  c gray64",
")  c #0B0B0B",
"_  c #1E1E1E",
"`  c gray67",
"'  c #181818",
"]  c #060606",
"[  c #929292",
"{  c gray48",
"}  c #F8F8F8",
"|  c #979797",
" . c gray9",
".. c gray1",
"X. c DimGray",
"o. c #989898",
"O. c #4C4C4C",
"+. c gray7",
"@. c #111111",
"#. c gray24",
"$. c #6D6D6D",
"%. c #E1E1E1",
"&. c gray81",
"*. c gray86",
"=. c #AAAAAA",
"-. c #F4F4F4",
";. c gray94",
":. c #626262",
">. c gray38",
",. c gray93",
"<. c #747474",
"1. c #DFDFDF",
"2. c #484848",
"3. c gray72",
"4. c #B9B9B9",
"5. c #CDCDCD",
"6. c #101010",
"7. c gray98",
"8. c #7B7B7B",
"9. c #727272",
"0. c gray71",
"q. c #272727",
"w. c gray97",
"e. c #B7B7B7",
"r. c #C1C1C1",
"t. c gray12",
"y. c #CBCBCB",
"u. c #C3C3C3",
"i. c #FFFFFD",
"p. c #FFFFFE",
/* pixels */
"                              .                     X                               X               ",
"          . o                                 X X                                   .               ",
"      X   X .                                 . .                                                   ",
"                                                                                                    ",
"                              O                                                                 X   ",
"    X                                                                                           X   ",
"      X X                                     .           . + @ # $ %                   X           ",
"X X                                           X       & * = - ; : > , < 1               X           ",
"X           X X                                     2 3 4 5 5 5 5 5 5 6 7 8 O                 X     ",
"X           X                                     9 0 5 5 6 6 6 6 6 6 6 5 q w o                     ",
"                                                e r 5 6 6 6 6 6 6 6 6 6 6 5 t y                     ",
"                                              u i 5 6 6 6 6 5 5 5 5 6 6 6 6 5 p a                   ",
"                                              9 t 5 6 6 6 5 > s d f g 5 6 6 6 5 h                   ",
"                                              j 5 6 6 6 5 k l     z x 4 5 6 6 5 c v                 ",
"                                            b n 5 6 6 5 m a         M , 5 6 6 5 N B                 ",
"              X X                           V C 5 6 6 5 Z O           A 5 6 6 5 S D                 ",
"                X                           F > 5 6 6 5 G .           < 5 6 6 6 S D                 ",
"                                            H J 5 6 6 5 K L         % P 5 6 6 5 I U                 ",
"                                    X         Y 5 6 6 6 6 T F     M R t 5 6 6 5 E +                 ",
"X                                             W S 5 6 6 6 Q c ! ~ ^ S 5 6 6 6 5 /                   ",
".     X X                                     ( ) 5 6 6 6 6 5 5 5 5 5 6 6 6 5 _ B                   ",
"                                            ` ' 5 6 6 6 6 6 6 6 6 6 6 6 6 5 ] [                     ",
"                        X                 ` ' 5 6 6 6 6 6 6 6 6 6 6 6 6 5 4 { }       X             ",
"                                        ` ' 5 6 6 6 5 6 Q 5 5 5 5 5 5 5 0 | }         X             ",
"                              X       `  .5 6 6 6 5 ..X.o.O.0 +.@.; #.~ a                           ",
"                X           X .     `  .5 6 6 6 5 ..$.b   } %.&.e *.H                               ",
"        X X                       =. .5 6 6 6 5 ..j b                                               ",
"                                =. .5 6 6 6 5 ..j b                                                 ",
"                  .           =. .5 6 6 6 5 ..j b                       X X   . X                   ",
"                  X         =. .5 6 6 6 6 5 Y -.          X                   X                     ",
"                          =. .5 6 6 6 6 6 5 = ;.                                                    ",
"                        =. .5 6 6 6 6 6 6 6 6 :.v                                                   ",
"                      =. .5 6 6 6 6 6 6 6 6 5 6 >.,.                                                ",
"                    *  .5 6 6 6 6 6 6 6 6 6 6 5 5 <..                                               ",
"  X               1.> 5 6 6 6 6 6 6 6 6 6 6 6 6 5 2.}                                               ",
"  X               3.4 6 6 6 6 5 6 6 6 6 6 6 6 5 _ 4.  X                                             ",
"                  5.N 5 6 5 g 6.5 6 6 6 6 6 5 _ 9   . X                                             ",
"                  7.8.t 5 t 9.0.q.5 6 6 6 5 _ 9                                                     ",
"      X             w.e.A e.w.  r.K 5 6 5 _ 9                                                       ",
"      X                           r.q.5 t.9                                                         ",
"                                    y.~ u.                                                    i.p.  ",
"                                                                                            . i.p.  ",
"                                                                                            X       ",
"                                                                  X X       X .                 X   ",
"  X X                                           X   X .           X X         X       X O           ",
"                                X X             .                                                   ",
"                                X X                                                                 ",
"                                                                                                    ",
"                                                                                              X     ",
"                X                                                                                   "
};
