/* XPM */
static char *_88887bddec3450ff7090c6f86c7b8a9W9SbAwmz9Atcuf6u[] = {
/* columns rows colors chars-per-pixel */
"50 50 214 2 ",
"   c #070707",
".  c #151516",
"X  c #171919",
"o  c #1B1C1B",
"O  c #181717",
"+  c #1D1E21",
"@  c #1C2021",
"#  c #242424",
"$  c #2A2A2A",
"%  c #272727",
"&  c #383735",
"*  c #3B3A3A",
"=  c #353536",
"-  c #3C352B",
";  c #474238",
":  c #534937",
">  c #4A4542",
",  c #4C4C4C",
"<  c #424241",
"1  c #574C45",
"2  c #595248",
"3  c #5B5A5B",
"4  c #595654",
"5  c #555058",
"6  c #625946",
"7  c #655B4A",
"8  c #695E48",
"9  c #665E55",
"0  c #6F5C55",
"q  c #715756",
"w  c #6E624C",
"e  c #6D6352",
"r  c #6C655D",
"t  c #726655",
"y  c #756A55",
"u  c #7A6C53",
"i  c #736C5C",
"p  c #796D5A",
"a  c #7D7157",
"s  c #7D715B",
"d  c #5E5F63",
"f  c #6D6C6C",
"g  c #686565",
"h  c #746C66",
"j  c #7C746A",
"k  c #7A7468",
"l  c #767675",
"z  c #7B7672",
"x  c #7E7D7E",
"c  c #7D7872",
"v  c #82745B",
"b  c #8C7B5E",
"n  c #867659",
"m  c #8A5C78",
"M  c #877861",
"N  c #8C7D62",
"B  c #857C6E",
"V  c #8C7E6A",
"C  c #817666",
"Z  c #847B74",
"A  c #837D7A",
"S  c #887E72",
"D  c #8C826C",
"F  c #8F8166",
"G  c #938364",
"H  c #998565",
"J  c #9D8966",
"K  c #94846A",
"L  c #9C8B6B",
"P  c #97896C",
"I  c #8E8472",
"U  c #8A837C",
"Y  c #8A867D",
"T  c #9D8E72",
"R  c #948C7C",
"E  c #968B7B",
"W  c #9D917E",
"Q  c #A18E6B",
"!  c #A6936E",
"~  c #B49E6F",
"^  c #A59473",
"/  c #A99573",
"(  c #AB9975",
")  c #AD9B7A",
"_  c #A3947A",
"`  c #B39D76",
"'  c #B39E79",
"]  c #B5A27C",
"[  c #BBA57D",
"{  c #BBA47B",
"}  c #C7AE7F",
"|  c #817F80",
" . c #818181",
".. c #8C8681",
"X. c #8D8984",
"o. c #8A8A8A",
"O. c #948B84",
"+. c #948D89",
"@. c #958B8B",
"#. c #9B938C",
"$. c #9A9180",
"%. c #929293",
"&. c #9E9591",
"*. c #9C9C9B",
"=. c #A39684",
"-. c #A89D87",
";. c #A49B95",
":. c #A99F9A",
">. c #A69D96",
",. c #B5A382",
"<. c #BBA682",
"1. c #BEAA84",
"2. c #BDAA89",
"3. c #ADA39D",
"4. c #A3A29A",
"5. c #B5A59A",
"6. c #AEA28C",
"7. c #9A9EA1",
"8. c #ADAAA4",
"9. c #A6A7A7",
"0. c #B2AAA4",
"q. c #B9AFA9",
"w. c #B4ABA5",
"e. c #BDB2AC",
"r. c #B6B0AB",
"t. c #AFB0B4",
"y. c #B3B3B3",
"u. c #BCBDBD",
"i. c #BDB7B1",
"p. c #C2AC84",
"a. c #C6AE84",
"s. c #C8B187",
"d. c #C4B18A",
"f. c #CAB58B",
"g. c #CEB98F",
"h. c #C6B186",
"j. c #D4BB8D",
"k. c #D1B687",
"l. c #CEB993",
"z. c #CCBA96",
"x. c #D3BD92",
"c. c #D9BE92",
"v. c #D1BE9A",
"b. c #C0B6AE",
"n. c #C8BCB5",
"m. c #C5BAB4",
"M. c #BEC0BF",
"N. c #D6C095",
"B. c #DAC293",
"V. c #DCC59A",
"C. c #DBC59C",
"Z. c #E1C595",
"A. c #E5CC9C",
"S. c #E9CE9D",
"D. c #E5C895",
"F. c #EED29E",
"G. c #D6C4A1",
"H. c #CDC2BC",
"J. c #C4C3BF",
"K. c #D1C4BD",
"L. c #E6CEA1",
"P. c #E9CEA1",
"I. c #E7D1A4",
"U. c #EAD2A4",
"Y. c #EAD4A9",
"T. c #EBD6AC",
"R. c #F2D6A3",
"E. c #F4D9A5",
"W. c #FADBA5",
"Q. c #F4DAAA",
"!. c #F1D6A9",
"~. c #F4DDB2",
"^. c #FEE3AE",
"/. c #F9E1B4",
"(. c #BFC0C2",
"). c #C4C4C4",
"_. c #CDCDCC",
"`. c #C8C6C7",
"'. c #D6C9C2",
"]. c #DACBC4",
"[. c #DBCDCA",
"{. c #D3C5C2",
"}. c #CED2D5",
"|. c #D2D3D4",
" X c #DDDCDC",
".X c #D6D7DB",
"XX c #E2D3CC",
"oX c #ECDDD6",
"OX c #EEDFD8",
"+X c #E6D9D2",
"@X c #F0DFD8",
"#X c #EEE0D7",
"$X c #EFE0D9",
"%X c #F1E2DB",
"&X c #DFE0E4",
"*X c #E5E5E5",
"=X c #EBEBED",
"-X c #E6E6E9",
";X c #F9E6E1",
":X c #FCEBE4",
">X c #FFEFE8",
",X c #F6E7E2",
"<X c #FFF4EC",
"1X c #EEEFF1",
"2X c #EFF0F3",
"3X c #F4F5F5",
"4X c #FFF9F2",
"5X c #FDFDFD",
"6X c #FEFEFE",
"7X c white",
"8X c #FEFFFF",
"9X c #FEFEFE",
"0X c #FFFFFF",
"qX c #F5F6F8",
/* pixels */
"7X7X7X7X7X7X7X7X7X7X7X7X7X7X7X7X5X7X7X7X5X7X5X5X5X5X7X7X7X7X7X7X5X5X7X5X7X7X7X7X7X7X7X7X7X7X7X7X7X7X",
"7X7X7X7X7X7X7X7X7X7X7X7X5X5X7X7X7XqX.XJ.0.;.W -.6.-.$.Y Y %.u.=X7X7X5X5X5X7X7X7X7X7X7X7X7X7X7X7X7X7X",
"7X7X7X7X7X7X7X7X7X7X7X7X7X7X3X`.0.W J G { D.} J ' j.D.J n b u t #.|.7X7X7X7X7X7X7X7X7X7X7X7X7X7X7X7X",
"7X7X7X7X7X7X7X7X5X7X7X3X`.Y T J Q k.S.p.{ Q ! ' ^ ' Q <.} ' { a.Q v 8.7X7X5X7X7X7X7X7X7X7X7X7X7X7X7X",
"7X7X7X7X7X7X7X7X7X3X8.i b ` ( Q [ ( G { D.R.c.` J { B.s.H ' [ J { / n 0.7X5X7X7X7X7X7X7X7X7X7X7X7X7X",
"7X7X7X7X7X7X5X7X&Xk } D.p.Q s.Z.J { S.{ N Q a.F.S.` G s.S.( ! A.{ J u N _.7X5X7X7X7X7X7X7X7X7X7X7X7X",
"7X7X7X7X7X7X7X7X-.` / ` R.S.J ` E.` G c.R.k.^ H ' W.S./ H j.[ Q F.W.v w #.7X7X7X7X7X7X7X7X7X7X7X7X7X",
"7X7X7X7X7X5X7X).n s.s.' H j.W.` b c.B.H ^ Z.W.F.' H a.D.Z.( ` ] J ' Z.s 8 *X7X5X7X7X7X7X7X7X7X7X7X7X",
"7X7X7X7X7X5X7Xu.: K ,.[ j.^ ` R.B.^ [ R.{ N N } F.} G n Q Q P u L p N M - ).7X5X7X7X7X7X7X7X7X7X7X7X",
"7X7X7X5X7X5X7X*.O.t N ) G ' J n / w 8 6 e ) V p v K 2.,.) -.G._ l.G._ 2.-.k 5X7X7X7X7X7X7X7X7X7X7X7X",
"7X7X7X7X7X7X&XA 4X[.O.2 G B K.5.S ; d.g.p.T.!.Y.L.U.!.!.Q.Q.U.R.F.U.Q.Y.^.Q t.5X5X7X7X7X5X7X7X7X7X7X",
"7X7X7X7X5X7Xy.n.<X>X4XOXO.v q.<X,X$.F.F.!.S.A.S.A.A.A.A.L.L.L.A.A.I.L.A.D.Z.U 5X7X7X7X7X7X7X7X7X7X7X",
"7X7X7X7X7X7Xz XXn.0.w.K.@X:.B %XoXI S.A.A.Y.L.A.A.A.A.A.P.P.P.Y.T.I.L.Y.A.Q.T `.7X5X7X7X7X7X7X7X7X7X",
"7X7X7X5X7X*...:.:.3.:.3.;.3.K.%X;XA c.S.L.A.A.U.I.A.S.L.L.A.A.A.U.A.P.Y.Y.U.x...7X5X7X7X5X7X7X7X7X7X",
"7X7X7X7XqXA :X:X<X<X<X4X:X%XOX@.>X0.W Q.L.E.A.1.V.!.Y.Y.L.S.A.S.L.S.A.Y.Y.L.!.I =X7X7X7X7X7X7X7X7X7X",
"7X7X5X5X`.+.8.H.b.I U >.XX>X%X+.+XOXB !.S.^ I ;.r c.U.U.L.A.A.A.P.S.A.A.A.L.E.S -X7X5X7X7X7X7X7X7X7X",
"7X7X5X7Xu.> i u 1 $.3.I 9 #.:X3.XX:XU v.B 4 H.<X{.N Q.A.A.S.A.A.U.L.A.A.A.L./.p |.7X5X7X7X7X7X7X7X7X",
"7X7X7X5X7Xo.U n.Y g f l ;.A O.[.%X:X;.) U +Xw.#.H.B c.S.S.A.A.A.I.A.S.A.L.Y.~.p }.7X7X7X7X7X7X7X7X7X",
"7X7X7X5X7X*.K.b.XX@ 5 7.| 0.A b.,X:X:.D F U K.w.&.c l.T.A.S.I.I.L.F.I.I.Y.Y.~.i }.7X5X7X7X7X7X7X7X7X",
"7X5X7X7X}.#.K.#.oX, d h e.%XOX+XOX:Xr.u f.6 z e.:.A v.!.D.S.I.S.I.A.I.I.T.Y.~.h =X7X7X7X7X7X7X7X7X7X",
"7X7X5X7X%.].>.].%XoX+X%X;X%X%X%XOX<X;.M 2.f.O.5Xr.A C.Y.A.P.A.S.A.A.I.Y.Y.~.d.o.7X5X7X7X7X7X7X7X7X7X",
"7X5X7X=X#.%X#.%X%X%X%X%XOX%X$X%X$Xr.T v T G S ,X;.X.l.F.A.A.A.P.A.A.F.A.I.~.j 2X7X5X7X7X7X7X7X7X7X7X",
"7X5X7Xy.q.:XOX%X:X;X@X@X%X%XOX:X+.2 ) ) L ( S <XK.E E.A.A.I.A.A.A.A.A.L.~.I u.5X5X7X7X7X7X7X7X7X7X7X",
"7X7X7X+.#X%X;X#X;.m.;X;X;X%X%X{.7 B.M / g.L W ].r V.U.I.!.Q.!.Y.E.Y.T.~.I (.7X5X7X5X7X7X7X7X7X7X7X7X",
"7X7X5Xc '.%XH.'.oXU H.n.{.+X,Xj <.P A.d.V.<.6 f R j.B.V.x.d.v.z.,.=.=.h `.7X5X7X7X7X7X7X7X7X7X7X7X7X",
"7X7X7X*Xx S j 9 j 3.K.e J -.8.u V.] ^ h.N.1.w c +Xc j C j @.>.:.m.%X&.t.5X5X7X7X7X7X7X7X7X7X7X7X7X7X",
"7X7X5X7Xr.8 N.( G >.3.h S K t ' ! d.] F Q d.x.s [.<X%X%X;X:X:X:X,X%XX.5X7X7X7X5X7X7X7X7X7X7X7X7X7X7X",
"7X7X5X7XY : t L v Q ^ O._ P ( V.K d.!.V.1.( V.s e.;XOX$X%XOXOXOX$XOXX.5X7X7X7X7X7X7X7X7X7X7X7X7X7X7X",
"7X7X7X7X Xh 2 K p.L p.N ^ T i ( ) ] ,.N.s.( 1.' 0.:XOX%X$X$X%X$X%XXXf 7X7X5X7X7X7X7X7X7X7X7X7X7X7X7X",
"7X7X7X5X7X7X@.m 5 ; t 6 w P ] T A.] ( ^ ) x.^ ( e.;XOX%X%X%X$X%X%XOXz 5X7X7X5X7X7X7X7X7X7X7X7X7X7X7X",
"7X7X7X7X5X7X| q e a s g.1.1.f.^ ( V.A.F ^ [ x.e m.;XOX%X%X$X%XOXOX;X#.=X7X7X7X7X7X7X7X7X7X7X7X7X7X7X",
"7X5X7X7X5X-X9 ,.1.1.T [ ( F ) ( ( T ) f.T ( ^ P K.%XOX%X$X%X@X%X$X:X3.}.7X5X7X7X7X7X7X7X7X7X7X7X7X7X",
"7X5X7X5X5X4.u G 2.1.^ ^ ( ^ L 1.V.L f.E.] V.j.e oX$X$X$X$X%X%X%X@X%X].:.7X5X7X7X7X7X7X7X7X7X7X7X7X7X",
"7X7X7X7X-XC T N.( ^ ^ ) s ,.N.P 2.N A.g.f.<.v j >XOX$X$X%X$X%X$XoXoX;X+.-X7X7X5X7X7X7X7X7X7X7X7X7X7X",
"7X7X5X7X X8 P A.T P [ 1.F P E.L I.] p.E.^ g.w r.>X$X%X$X$X$XoX$X>X:X<Xi.u.7X7X7X5X5X7X7X7X7X7X7X7X7X",
"7X7X5X7X XD d.) ! v N.] ) w U.F ^ ) V.s.G h i.%X$X$X%X$X$X$X>XoX>.r 4 > & 3 & o.7X7X7X5X7X7X7X7X7X7X",
"7X7X5X7X`.u s ; F ] ,.( 1.w 1.N.) P p.y z ,X:X$X$X$XOXOX:X%X#.& . X o @ # o o $  X_.7X7X5X5X7X7X7X7X",
"7X7X5X7Xi.1.L ] T ( ,.f.( K n N.G p 3.K.:X%XOX$X#X$X:X:Xq.* . # $ $ # # $ $ # O $ . 3 5X7X5X5X7X7X7X",
"7X7X5X7Xr.y A.L g.' w N.f.N.h.s O.A OX:XOXOXOXOX:X:Xe.4 o @ $ $ # O o # o O o # % $ . , *X7X7X7X7X7X",
"7X7X5X7X3Xi ( P /.g.F g.1.^ i X.4Xc '.%XOX%X>X,Xb.4 o o $ % o O o # $ $ $ $ $ % # @ #   $ l y.3X7X7X",
"7X7X7X5X7X+X> G { B.' } k 9.2X*.K.;.>X:X:XoX3.2 o o $ # O O @ $ $ % # # o o o O o + # $ %     % _.7X",
"7X7X7X7X5X7X*X4.k k R Y $X5X).@ r.%XH.;.h & o o $ o O o % $ $ @ o o + o @ % % $ $ # o . % g %.).3X7X",
"7X7X7X7X7X7X5X7X7XqX7X7X7X X. X ; > o . . . o o o # % % @ o o o # % $ $ # O . . o * l y.*X7X7X7X7X7X",
"7X7X7X7X7X7X5X5X5X7X7X5X7Xf . $ o . o o + # % % % o o o o # $ $ $ # . . < U 9.u._.5X7X7X7X5X5X5X7X7X",
"7X7X7X7X7X7X7X7X7X7X5X7X|.. % . o + # % $ $ # O O # % $ $ $ # . . = x ).5X7X7X7X7X7X5X5X7X7X7X7X7X7X",
"7X7X7X7X7X7X7X7X5X7X5X7Xo.. $ % % $ $ % % $ # # $ $ $ # O O = f u.3X7X7X7X5X5X5X5X5X5X7X7X7X7X7X7X7X",
"7X7X7X7X7X7X7X7X7X7X5X7Xg o $ $ $ $ $ $ $ $ $ # o . . $ f ).3X7X7X7X5X5X7X7X7X7X7X5X7X7X7X7X7X7X7X7X",
"7X7X7X5X7X7X7X7X7X7X5X7X4   o o O O . O . O @ = 3 l t.<X7X7X7X5X5X5X7X7X7X7X7X7X7X7X7X7X7X7X7X7X7X7X",
"7X7X7X7X7X7X7X7X7X7X5X7X).x 9.y.t.r.t.t.y.). XqX5X7X7X7X5X5X5X7X7X7X7X7X7X7X7X7X7X7X7X7X7X7X7X7X7X7X",
"7X7X7X7X7X7X7X7X7X7X7X7X7X7X5X7X7X5X7X7X7X7X7X7X5X5X5X5X7X7X7X7X7X7X7X7X7X7X7X7X7X7X7X7X7X7X7X7X7X7X"
};
