/* XPM */
static char *d0b59edb7d6b48bb878ad619060abb73HlT9RyuT8in337rZ[] = {
/* columns rows colors chars-per-pixel */
"50 50 128 2 ",
"   c #281F16",
".  c #2C231A",
"X  c #30261D",
"o  c #31281F",
"O  c #342B22",
"+  c #382F26",
"@  c #393027",
"#  c #3D342B",
"$  c #40372E",
"%  c #41382F",
"&  c #443B32",
"*  c #483F36",
"=  c #494037",
"-  c #4D443B",
";  c #50473E",
":  c #51483F",
">  c #554B42",
",  c #584F46",
"<  c #5A5047",
"1  c #5D544B",
"2  c #60574E",
"3  c #61584F",
"4  c #655B52",
"5  c #685F56",
"6  c #696057",
"7  c #6C635A",
"8  c #70675E",
"9  c #71685F",
"0  c #756B62",
"q  c #786F66",
"w  c #797067",
"e  c #7C736A",
"r  c #80776E",
"t  c #82786F",
"y  c #847B72",
"u  c #887F76",
"i  c #898077",
"p  c #8D847B",
"a  c #90877E",
"s  c #91887F",
"d  c #958C83",
"f  c #988F86",
"g  c #999087",
"h  c #9F968D",
"j  c #9E958C",
"k  c #9C938A",
"l  c #A0968D",
"z  c #A0978E",
"x  c #A1978E",
"c  c #A0978E",
"v  c #A1988F",
"b  c #A2988F",
"n  c #A2988F",
"m  c #A29990",
"M  c #A39990",
"N  c #A39A91",
"B  c #A49A91",
"V  c #A49B92",
"C  c #A59B92",
"Z  c #A59C93",
"A  c #A69C93",
"S  c #A69D94",
"D  c #A79D94",
"F  c #A79E95",
"G  c #A59B92",
"H  c #A89E95",
"J  c #A89F96",
"K  c #A99F96",
"L  c #A89F95",
"P  c #A9A097",
"I  c #AAA097",
"U  c #A9A097",
"Y  c #AAA198",
"T  c #ABA198",
"R  c #ABA299",
"E  c #ACA299",
"W  c #ACA39A",
"Q  c #ADA39A",
"!  c #ADA49B",
"~  c #AEA49B",
"^  c #AEA59C",
"/  c #AFA59C",
"(  c #AFA69D",
")  c #ADA49A",
"_  c #B0A69D",
"`  c #B0A79E",
"'  c #B1A79E",
"]  c #B0A79D",
"[  c #B1A89F",
"{  c #B2A89F",
"}  c #B1A89F",
"|  c #B2A9A0",
" . c #B3A9A0",
".. c #B3AAA1",
"X. c #B4AAA1",
"o. c #B4ABA2",
"O. c #B5ABA2",
"+. c #B5ACA3",
"@. c #B6ACA3",
"#. c #B6ADA4",
"$. c #B7ADA4",
"%. c #B7AEA5",
"&. c #B4ABA2",
"*. c #B8AEA5",
"=. c #B8AFA6",
"-. c #B9AFA6",
";. c #B8AFA6",
":. c #B9B0A7",
">. c #BAB0A7",
",. c #B9B0A7",
"<. c #BAB1A8",
"1. c #BBB1A8",
"2. c #BCB2A9",
"3. c #BCB3AA",
"4. c #BDB3AA",
"5. c #BDB4AB",
"6. c #BEB4AB",
"7. c #BFB5AC",
"8. c #BCB3AA",
"9. c #C0B6AD",
"0. c #C0B7AE",
"q. c #C1B8AF",
"w. c #C1B8AF",
"e. c #C4BBB2",
"r. c #C4BBB2",
"t. c #C9BFB6",
"y. c #CAC0B7",
"u. c #D6CCC2",
/* pixels */
"s j j 4 p j k v k h s k m s d g k s u 9 7.Y v h Y h Y Q k Q k V 1 d :.Y h m h Y v v h S h Z m J h h ",
"j m d 4 s g k g p m g p k S h k g S p : i N %.Z j h V Z g V f f 1 W #.F ^ S g s f h k z Z Y h g g g ",
"d d y 0 Z m m d h m m k k p e e 6 6 1 O - 1 8 7 e u u u a d l u 1 :.F d v g h h f m m k z h k h k k ",
"d u 1 > w w p y 7 3 , 1 % % 7 y d u u p d e e i q w 7 4 7 4 5 $ : S ..^ W g h h h v m k z d d g f f ",
"3 < # # 1 < 7 7 4 9 6 6 # - o.;.[ +.;.<.^ <.;.W @.9._ M Q k a , : 0 k g i e e t t 0 w y e w 0 0 7 0 ",
"i d f Z +.W Y Z s k k J 9 , m P J P ( S J +.;.J H H T T @.' f 4 : = 1 1 - , 1 1 1 > 1 1 o % 1 9 p p ",
"z h N h f f d f P h d z i 2 7 h m k k k z g k j M l l l d f q , e i p d g d d i f f f f * 9 z | S S ",
"f f Y v k v d v f g g i h y , p ! J z d d i d d u r q 7 , 4 % $ p [ g g N g V g z f d k - p Z p g f ",
"f k k f f z z j j d d f k p 6 % 2 3 r r r 7 s u a r y a d a u ; i F h s f v V g f p h p = y f h g g ",
"k z h d i d f z g d d y 9 6 6 2 O r K ' @.9.Q Q _ _ _ l M T ' 9 e s s h g s h d Z s u v 0 y h s g k ",
"d d d N W V d u 6 4 7 0 e d h k 4 Q -.f k K k ' d Q @.M A A k 4 @ - : 4 : % 0 i s d p d , 7 h f g g ",
"k k f d 0 3 5 0 d d d d k m m d r l s C M Q / C H H T l D A A s 4 s s s 0 - 3 6 4 6 6 &   t Z s N m ",
"w 6 1 5 w u d g f f g g f m h p r ' s { C k K s C g l s x k k k 7 ;.<.;.q.( ^ W N v s 3 * p 3.[ z h ",
"6 w d g d d d h z f g g k z p 7 ; ' A M A f A ' E l ' b x s u 9 = V +.V W ^ ( 5.Z %.| r.p , 0 7 1 1 ",
"d d f g h v g d j d d g m S u 1 * s $.' / u r r 9 , 8 7 3 , , * & t | ( Z F Z ( %.Z y v e & 7 0 s s ",
"k N F h g h h h d d d u e q 3 & ; + 3 < 1 5 7 r 4 % r / / g k D w 7 d h s V h k k g v f 7 > e g d f ",
"2 2 r < , < < 5 5 4 5 3 2 3 r r u k l u s 6.6.X.Q r r C l C s A f 1 5 f z h f e e p e 4 : : : - 3 1 ",
"r r r r ; X r Q H Q / X.*.X./ 2.9.$.>./ Q @.Q A X.b < u u u u u 7 & - 9 9 4 2 = @ , e s v z p 0 u y ",
"l l l M f 4 Q C / X. .X. .Q B l _ T _ { _ Q C Q X.u > r r 2 2 r s y i k k f s s , 6 J h g d h z h h ",
"u f f f r r @.M Q Q Q Q T D B l A s M M C C s H Q C 3 # 2 t u M z z z h h g k m 6 3 S k h k h g h k ",
"f a a f r r  .@.Q /  .Q D B b b s s s l s A s A u u r 2 ~ _ 6.u d k g d g k k v w 4 h s d s g g s s ",
"x d E g , ; r Q B H H B g d d f M C A l b Q A u l r & ; s u K s d v h g v m h h 6 6 m Z V d d h k g ",
"i 5 r < < ; ; 4 a a a a a f l B A s s u u u r r ; $ r # r u u s k g s p y y t w : @ @ = 6 w y s a a ",
"= ; u g 9.C a r ; = $ # $ ; 2 2 4 ; - $ $ & # $ ; = ; > * r r r < - - - - : < , 6 4 > 3 6 1 , 1 3 4 ",
"r ; t.A l  .@.T O.l a r r r r ,   r u b u l l u l I ' l M H s s p d w y * g F m #.<.| 5.0.R z s k N ",
"5 < X.l ~ K C H K A O._ l l D r > O.@.H l x b H T u s l B M l Q s h m s 1 a #.[ S R m S R W #.^ R W ",
"r 2 @.b T H l T A l A A g f D r # l u u B g u K B u M M A u u A h k N s 3 d 3.! #.| F R F F ^ z R S ",
"i ; >./ l K l x b g f l b a l r O D / H  .u f A u M l s u u M s a f s m 1 h ..Z | v g F F k m f g g ",
"r = a l x x b d l K g f E g f r + u l d g u A u u g u l H M / b N h s p * y W #.h h g z h g v g g s ",
"X < , r l i _ E b l u < 5 2 r , - r u M Q u K _ K u u u u u u t s y e < o % : & 5 t e 0 e w 9 4 % % ",
"5 r < $ < & * * = + < , r y K ' l r 2 r K B r r r , < r ; X ; ; : , 0 y s s y , - : @ % 7 7 2 : 2 4 ",
"l g E r u x r r r ; A t.*./ ~ E K E K 4 , , r r r u l B r 2 u B s S N <.( r.S f <.y # , F R s Z h m ",
"g l g l p b g g g ; d / M M D C ( P <.d 1 ^ Z m m j ^ t 5 z #.` N | ( F ^ o.W ^ W - 1 k z g d k k g ",
"a a a l f D g g g 2 u *.@.C g M ( P m w 1 p w 0 y 0 6 5 p :.:.h h h V W W m m o.0 % 7 d s z W d k k ",
"l l d l g l f f l r 4 u r 3 r r 1 5 1 ; 1 9 6 8 e 1 O > ` ` ! ( h v z f d k k d * 9 d s d g p p s s ",
"a a a g g a f l l r X ; 3 2 r r e p d d S k Z R g m 6 O d o.P d f h V h k P d 3 @ p ^ k h z d W h h ",
"a l f B C a a f u r r l u u O.E d s k k g i g a g p 7 & k P d J ;.v p u w 7 > o @ - 7 7 , 6 t w y y ",
"2 5 < < r 4 r u u r 2 K { l A f P f h h m f P g d m z > 7 y 4 3 , > > > > 3 7 6 4 , @ # - 1 4 4 3 1 ",
"a a 2 * < < r 4 ; = < r r = r 2 6 8 0 7 0 9 7 6 5 1 3 & # * > 1 4 y f d v ^ ^ V k P 3 , z P d P h h ",
"M l r 4 l l B d u u t 2 r r 2 - 1 e p w i e 1 0 e 9 1 * - d q.z F F h h V d d k p S 6 1 k z d g g g ",
"x u K 4 f k u s l b x C M A u - p n V P h h P j l l M r X u Q s h h d g z h g h d ( 6 , g S f h k f ",
"f u d 7 u B l I b M u u l A u > i h a d V V g g l s a u % r T u d z h g k k g g h e * & 4 4 4 7 u s ",
"* 6 2 * $ , > 8 r r r r r r u < 6 j k v k s i h s s s s > > Q M h d s h V h g g y 1 w k d y w 0 4 , ",
"H Q s k k k 5 * r r 2 r r r , X i n s f s k d V l M s C 9 & p l d d g z z z z k 7 3 Z r.( %.<.( f 1 ",
"u l A E H Q f u X.C b l s u r X i k s v k b b s l s l l p * 1 r i g z u 4 3 < % % % 7 7 4 w e y p 1 ",
"> < 5 2 3 4 * O 5 1 r r r 2 ; $ : 3 4 6 7 7 9 3 8 8 9 5 7 $ + 1 : = 3 y t w w 0 3 1 1 1 4 4 3 4 7 3 ",
"d u u 2 $ r t k r r s u s u u H i e = @ r i i i 5 4 6 4 2 ; > < 1 & 9 ;.r.o.+.0.r.<.Z v S S W ! N J ",
"x M @.u r ~ f l M f M k D K u l j Q e 2 w.{ I { { b M ] D B l r # 1 h 0.W h W S v o.! o.W S o.v J N ",
"l E Q 0 f b f l k x k d d g k f g M r 5 E C B A A M E M H l Q _ 3 w u.+.( m Y S h v J W W Z m h ( N ",
"f l k 5 u M f k g l k d f k k d k B t 7 ' A A A A A ' A ' s A H , 7 e.F V k S S N P ( | ^ Z k f J k "
};
